<svg xmlns="http://www.w3.org/2000/svg" width="30.603" height="35.26" viewBox="0 0 30.603 35.26"><defs><style>.reverse,.reverse-o{fill:#fff;}.reverse-o{font-size:11px;font-family:Roboto-Bold, Roboto;font-weight:700;letter-spacing:0.02em;}</style></defs><path class="reverse" d="M200.974,1268.6a18.737,18.737,0,0,1-12.519-4.609,1.066,1.066,0,0,1,0-1.63,1.408,1.408,0,0,1,1.83,0,16.524,16.524,0,0,0,18.25,2.156c5.929-3.045,8.823-9.26,7.053-15.15s-7.76-9.986-14.6-9.986a16.75,16.75,0,0,0-6.889,1.472l-2.074.944,6.478,1.735a1.157,1.157,0,0,1,.91,1.271,1.256,1.256,0,0,1-1.28.987,1.47,1.47,0,0,1-.378-.052l-7.968-2.134-.209.03a1.543,1.543,0,0,1-.207.014,1.35,1.35,0,0,1-.935-.355,1.062,1.062,0,0,1-.344-.852v-.084a1.031,1.031,0,0,1,.046-.4l2.631-7.8a1.3,1.3,0,0,1,1.24-.821,1.423,1.423,0,0,1,.37.048,1.137,1.137,0,0,1,.862,1.434l-1.505,4.458,1.879-.768a19.8,19.8,0,0,1,7.39-1.426,18.687,18.687,0,0,1,12.489,4.6,14.536,14.536,0,0,1,3.841,17.187C214.591,1264.761,208.134,1268.6,200.974,1268.6Z" transform="translate(-188.077 -1233.338)"/><text class="reverse-o" transform="translate(4.642 23.186)"><tspan x="0" y="0">15</tspan></text></svg>