<svg xmlns="http://www.w3.org/2000/svg" width="27.265" height="35.261" viewBox="0 0 27.265 35.261"><defs><style>.forward,.forward-o{fill:#fff;}.forward-o{font-size:10px;font-family:Roboto-Bold, Roboto;font-weight:700;letter-spacing:0.02em;}</style></defs><path class="forward" d="M535.055,1268.6a15.666,15.666,0,0,0,11.155-4.609,1.152,1.152,0,0,0-.815-1.967,1.139,1.139,0,0,0-.814.337,13.46,13.46,0,1,1-3.393-21.508l1.847.944-5.773,1.735a1.153,1.153,0,0,0,.329,2.258,1.194,1.194,0,0,0,.337-.052l7.1-2.134.188.03a1.2,1.2,0,0,0,.185.014,1.134,1.134,0,0,0,1.14-1.207v-.084a1.2,1.2,0,0,0-.041-.4l-2.344-7.8a1.164,1.164,0,0,0-1.106-.821,1.131,1.131,0,0,0-.329.048,1.153,1.153,0,0,0-.768,1.434l1.34,4.458-1.673-.768a15.98,15.98,0,0,0-6.584-1.427,15.758,15.758,0,1,0,.025,31.515Z" transform="translate(-519.282 -1233.338)"/><text class="forward" transform="translate(7.654 22.791)"><tspan x="0" y="0">15</tspan></text></svg>