<svg xmlns="http://www.w3.org/2000/svg" width="15.56" height="20.123" viewBox="0 0 15.56 20.123"><defs><style>.a,.b{fill:#fff;}.b{font-size:6px;font-family:Roboto-Bold, Roboto;font-weight:700;letter-spacing:0.02em;}</style></defs><path class="a" d="M528.284,1253.461a8.941,8.941,0,0,0,6.366-2.63.658.658,0,0,0-.465-1.122.65.65,0,0,0-.465.192,7.682,7.682,0,1,1-1.936-12.275l1.054.539-3.295.99a.658.658,0,0,0,.188,1.289.685.685,0,0,0,.192-.029l4.051-1.218.107.017a.662.662,0,0,0,.105.008.647.647,0,0,0,.651-.689v-.048a.681.681,0,0,0-.023-.225l-1.338-4.452a.664.664,0,0,0-.631-.469.649.649,0,0,0-.188.028.658.658,0,0,0-.438.818l.765,2.544-.955-.438a9.12,9.12,0,0,0-3.758-.814,8.993,8.993,0,1,0,.014,17.986Z" transform="translate(-519.282 -1233.338)"/><text class="b" transform="translate(4.368 13.3)"><tspan x="0" y="0">15</tspan></text></svg>