<svg xmlns="http://www.w3.org/2000/svg" width="17.465" height="20.123" viewBox="0 0 17.465 20.123"><defs><style>.m-reverse,.m-reverse-o{fill:#fff;}.m-reverse-o{font-size:7px;font-family:Roboto-Bold, Roboto;font-weight:700;letter-spacing:0.02em;}</style></defs><path class="m-reverse" d="M195.437,1253.461a10.693,10.693,0,0,1-7.144-2.63.608.608,0,0,1,0-.93.8.8,0,0,1,1.044,0,9.43,9.43,0,0,0,10.415,1.23,7.365,7.365,0,0,0,4.025-8.646,8.524,8.524,0,0,0-8.335-5.7,9.56,9.56,0,0,0-3.931.84l-1.184.538,3.7.99a.66.66,0,0,1,.519.725.717.717,0,0,1-.73.563.844.844,0,0,1-.216-.03l-4.547-1.218-.119.017a.868.868,0,0,1-.118.008.771.771,0,0,1-.533-.2.606.606,0,0,1-.2-.486v-.048a.588.588,0,0,1,.026-.226l1.5-4.452a.74.74,0,0,1,.708-.468.816.816,0,0,1,.211.027.649.649,0,0,1,.492.818l-.859,2.544,1.073-.438a11.3,11.3,0,0,1,4.217-.814,10.666,10.666,0,0,1,7.127,2.624,8.3,8.3,0,0,1,2.192,9.808A10.181,10.181,0,0,1,195.437,1253.461Z" transform="translate(-188.077 -1233.338)"/><text class="m-reverse-o" transform="translate(2.649 13.384)"><tspan x="0" y="0">15</tspan></text></svg>